<svg width="16" height="16" viewBox="0 0 16 16" fill="none" xmlns="http://www.w3.org/2000/svg">
<path d="M9.33325 6.66666V14.6667H2.66659C2.31296 14.6667 1.97382 14.5262 1.72378 14.2761C1.47373 14.0261 1.33325 13.687 1.33325 13.3333V6.66666H9.33325Z" fill="#6686FF"/>
<path d="M14.6667 6.66666V13.3333C14.6667 13.687 14.5263 14.0261 14.2762 14.2761C14.0262 14.5262 13.687 14.6667 13.3334 14.6667H10.6667V6.66666H14.6667Z" fill="#6686FF"/>
<path d="M14.6666 2.66667V5.33334H1.33325V2.66667C1.33325 2.31305 1.47373 1.97391 1.72378 1.72386C1.97382 1.47381 2.31296 1.33334 2.66659 1.33334H13.3333C13.6869 1.33334 14.026 1.47381 14.2761 1.72386C14.5261 1.97391 14.6666 2.31305 14.6666 2.66667Z" fill="#6686FF"/>
</svg>
