<svg width="12" height="15" viewBox="0 0 12 15" fill="none" xmlns="http://www.w3.org/2000/svg">
<path fill-rule="evenodd" clip-rule="evenodd" d="M1.26562 0C0.56664 0 0 0.566639 0 1.26562V12.9094C0 13.6084 0.566639 14.175 1.26562 14.175H9.87187C10.5709 14.175 11.1375 13.6084 11.1375 12.9094V7.59375C11.1375 6.19578 10.0042 5.0625 8.60625 5.0625H7.34062C6.64164 5.0625 6.075 4.49586 6.075 3.79688V2.53125C6.075 1.13328 4.94172 0 3.54375 0H1.26562ZM2.53125 9.1125C2.53125 8.83291 2.75791 8.60625 3.0375 8.60625H8.1C8.37959 8.60625 8.60625 8.83291 8.60625 9.1125C8.60625 9.39209 8.37959 9.61875 8.1 9.61875H3.0375C2.75791 9.61875 2.53125 9.39209 2.53125 9.1125ZM3.0375 10.6313C2.75791 10.6313 2.53125 10.8579 2.53125 11.1375C2.53125 11.4171 2.75791 11.6438 3.0375 11.6438H5.56875C5.84834 11.6438 6.075 11.4171 6.075 11.1375C6.075 10.8579 5.84834 10.6313 5.56875 10.6313H3.0375Z" fill="#4C4C4C"/>
<path d="M6.2243 0.213236C6.76212 0.834623 7.0875 1.64494 7.0875 2.53125V3.79688C7.0875 3.93667 7.20083 4.05 7.34062 4.05H8.60625C9.49256 4.05 10.3029 4.37538 10.9243 4.91319C10.325 2.61892 8.51858 0.812548 6.2243 0.213236Z" fill="#4C4C4C"/>
</svg>
